<?xml version="1.0" encoding="UTF-8"?>
<svg id="Layer_1" data-name="Layer 1" xmlns="http://www.w3.org/2000/svg" xmlns:xlink="http://www.w3.org/1999/xlink" viewBox="0 0 1050.18 421.18">
  <defs>
    <style>
      .cls-1 {
        clip-path: url(#clippath-6);
      }

      .cls-2 {
        clip-path: url(#clippath-7);
      }

      .cls-3 {
        clip-path: url(#clippath-4);
      }

      .cls-4 {
        fill: #008705;
      }

      .cls-5 {
        fill: none;
      }

      .cls-6 {
        clip-path: url(#clippath-1);
      }

      .cls-7 {
        clip-path: url(#clippath-5);
      }

      .cls-8 {
        clip-path: url(#clippath-8);
      }

      .cls-9 {
        fill: #00bab3;
      }

      .cls-10 {
        clip-path: url(#clippath-3);
      }

      .cls-11 {
        fill: #1d1d1b;
      }

      .cls-12 {
        clip-path: url(#clippath-2);
      }

      .cls-13 {
        clip-path: url(#clippath);
      }
    </style>
    <clipPath id="clippath">
      <rect class="cls-5" x="269.95" y="91.67" width="511.21" height="140.32"/>
    </clipPath>
    <clipPath id="clippath-1">
      <rect class="cls-5" x="269.95" y="91.67" width="511.21" height="140.32"/>
    </clipPath>
    <clipPath id="clippath-2">
      <rect class="cls-5" x="269.95" y="91.67" width="511.21" height="140.32"/>
    </clipPath>
    <clipPath id="clippath-3">
      <rect class="cls-5" x="269.95" y="91.67" width="511.21" height="140.32"/>
    </clipPath>
    <clipPath id="clippath-4">
      <rect class="cls-5" x="269.95" y="91.67" width="511.21" height="140.32"/>
    </clipPath>
    <clipPath id="clippath-5">
      <rect class="cls-5" x="607.67" y="277.83" width="214.56" height="49.14"/>
    </clipPath>
    <clipPath id="clippath-6">
      <rect class="cls-5" x="91.74" y="277.83" width="156.63" height="40"/>
    </clipPath>
    <clipPath id="clippath-7">
      <rect class="cls-5" x="91.74" y="277.83" width="156.63" height="40"/>
    </clipPath>
    <clipPath id="clippath-8">
      <rect class="cls-5" x="298.74" y="277.83" width="259.16" height="52.5"/>
    </clipPath>
  </defs>
  <g>
    <g class="cls-13">
      <path class="cls-11" d="M354.43,91.67l-23.5,67.35h-20.7c-10.83,0-11.68-1.86-11.68-12.06v-55.29h-28.6v56.93c0,23.95,11.52,34.25,38.51,34.25h45.66l1.54-5.69-21.92-18.14h27.13l8.4-29.35,8.39,29.35h27.15l-21.94,18.15,1.59,5.68h31.14l-31.83-91.18h-29.34Z"/>
      <path class="cls-11" d="M583.27,182.84v-67.35h20.33v-23.83h-85.46l-16.4,52.25-16.53-52.25h-28.38s-12.06,38.78-16.23,52.17c-4.21-13.38-16.37-52.17-16.37-52.17h-30.15l31.78,91.18h29.29l15.47-50.68,16.17,50.68h30.24l22.72-67.35h14.93v67.35h28.6Z"/>
      <path class="cls-11" d="M659.21,147.04c0,10.2-.9,11.97-11.73,11.97h-3.91c-10.83,0-11.71-1.77-11.71-11.97v-31.55h15.62c10.83,0,11.73,1.87,11.73,12.07v19.48ZM649.25,91.67h-45.99v56.85c0,23.95,11.54,34.32,38.53,34.32h7.46c26.99,0,38.56-10.38,38.56-34.32v-22.59c0-23.95-11.57-34.26-38.56-34.26"/>
      <path class="cls-11" d="M742.68,91.67h-45.86v91.18h28.59v-67.35h15.49c10.83,0,11.69,1.87,11.69,12.07l-.04,55.28h28.6v-56.92c0-23.95-11.49-34.26-38.48-34.26"/>
      <path class="cls-11" d="M276.61,231.99c-4.19,0-6.66-2.63-6.66-7.21v-8.87c0-6.48,4-7.21,9.57-7.21h2.14c4.8,0,6.27,2.08,6.27,6.6v.74h-2.6v-.64c0-3.21-.67-4.4-4.04-4.4h-1.46c-5.38,0-7.28.64-7.28,4.83v6.3c0,5.23.22,7.58,4.56,7.58h3.09c4.16,0,5.44-.58,5.44-3.85v-1.84h2.6v2.14c0,5.26-3.36,5.84-7.95,5.84h-3.67Z"/>
      <path class="cls-11" d="M303.73,210.99c-3.85,0-4.86.95-4.86,5.41v8.16c0,4.55,1.5,5.1,4.86,5.14h3.09c3.36-.03,4.86-.58,4.86-5.14v-8.16c0-4.47-1.01-5.41-4.86-5.41h-3.09ZM306.82,208.69c5.72.06,7.46,1.96,7.46,7.7v8.16c0,5.41-1.96,7.43-7.46,7.43h-3.09c-5.5,0-7.46-2.02-7.46-7.43v-8.16c0-5.75,1.74-7.64,7.46-7.7h3.09Z"/>
    </g>
    <polygon class="cls-11" points="344.52 208.88 336.39 228.5 328.29 208.88 323.8 208.88 323.8 231.81 326.39 231.81 326.39 210.83 326.45 210.83 335.13 231.81 337.7 231.81 346.36 210.83 346.42 210.83 346.42 231.81 349.02 231.81 349.02 208.88 344.52 208.88"/>
    <polygon class="cls-11" points="380.14 208.88 372.01 228.5 363.91 208.88 359.42 208.88 359.42 231.81 362.01 231.81 362.01 210.83 362.07 210.83 370.76 231.81 373.32 231.81 381.98 210.83 382.04 210.83 382.04 231.81 384.64 231.81 384.64 208.88 380.14 208.88"/>
    <g class="cls-6">
      <path class="cls-11" d="M413.26,208.88v16.51c0,6.14-3.67,6.6-9.08,6.6-5.01,0-9.08-.12-9.08-6.6v-16.51h2.6v16.51c0,3.73.89,4.31,6.48,4.31,4.61,0,6.48-.03,6.48-4.31v-16.51h2.6Z"/>
    </g>
    <polygon class="cls-11" points="440.81 208.88 440.81 229.82 440.75 229.82 427.91 208.88 423.62 208.88 423.62 231.81 426.22 231.81 426.22 211.02 426.29 211.02 439.16 231.81 443.41 231.81 443.41 208.88 440.81 208.88"/>
    <rect class="cls-11" x="453.81" y="208.88" width="2.6" height="22.93"/>
    <g class="cls-12">
      <path class="cls-11" d="M472.73,231.99c-4.19,0-6.66-2.63-6.66-7.21v-8.87c0-6.48,4.01-7.21,9.57-7.21h2.14c4.8,0,6.27,2.08,6.27,6.6v.74h-2.6v-.64c0-3.21-.67-4.4-4.03-4.4h-1.47c-5.38,0-7.27.64-7.27,4.83v6.3c0,5.23.21,7.58,4.55,7.58h3.09c4.16,0,5.44-.58,5.44-3.85v-1.84h2.6v2.14c0,5.26-3.36,5.84-7.95,5.84h-3.67Z"/>
    </g>
    <path class="cls-11" d="M501.57,211.02l5.1,13.79h-10.15l5.05-13.79ZM499.67,208.88l-8.34,22.93h2.72l1.77-4.86h11.59l1.8,4.86h2.69l-8.56-22.93h-3.67Z"/>
    <polygon class="cls-11" points="516.49 208.88 516.49 211.17 523.92 211.17 523.92 231.81 526.52 231.81 526.52 211.17 533.95 211.17 533.95 208.88 516.49 208.88"/>
    <rect class="cls-11" x="542.39" y="208.88" width="2.6" height="22.93"/>
    <g class="cls-10">
      <path class="cls-11" d="M561.99,210.99c-3.85,0-4.86.95-4.86,5.41v8.16c0,4.55,1.5,5.1,4.86,5.14h3.09c3.36-.03,4.86-.58,4.86-5.14v-8.16c0-4.47-1.01-5.41-4.86-5.41h-3.09ZM565.08,208.69c5.72.06,7.46,1.96,7.46,7.7v8.16c0,5.41-1.96,7.43-7.46,7.43h-3.09c-5.5,0-7.46-2.02-7.46-7.43v-8.16c0-5.75,1.74-7.64,7.46-7.7h3.09Z"/>
    </g>
    <polygon class="cls-11" points="599.17 208.88 599.17 229.82 599.11 229.82 586.27 208.88 581.99 208.88 581.99 231.81 584.58 231.81 584.58 211.02 584.64 211.02 597.52 231.81 601.77 231.81 601.77 208.88 599.17 208.88"/>
    <g class="cls-3">
      <path class="cls-11" d="M611.06,215.36c0-6.11,2.81-6.66,8.47-6.66,4.95,0,8.53.21,8.25,6.45h-2.6c-.12-4-.89-4.16-5.75-4.16s-5.78.64-5.78,3.82c0,4.37,2.08,4,6.36,4.13,5.44.31,8.19.15,8.19,6.36s-3.06,6.7-8.83,6.7-8.87-.7-8.38-7.34h2.6c-.06,5.05.92,5.05,5.78,5.05s6.24,0,6.24-4.5-1.96-3.64-6.14-3.97c-4.52-.37-8.41.18-8.41-5.87"/>
      <path class="cls-11" d="M672.25,220.34v4.98c0,5.38-2.41,6.66-7.61,6.66h-2.51c-6.11,0-8.8-1.13-8.8-8.22v-7.09c0-6.21,2.81-7.98,6.73-7.98h6.02c3.46,0,6.12,1.4,6.12,5.11v1.77h-2.6v-1.31c0-2.63-1.04-3.27-4.77-3.27h-3.21c-4.95,0-5.69.98-5.69,5.99v7.37c0,4.37,1.47,5.35,5.75,5.35h2.44c4.55,0,5.53-.55,5.53-4.22v-2.84h-7.3v-2.29h9.9Z"/>
      <path class="cls-11" d="M692.09,220.34c4.01-.12,4.49-1.35,4.49-5.14,0-2.94-.4-4.04-4.49-4.04h-8.01v9.17h8.01ZM684.08,231.81h-2.6v-22.93h10.58c4.95,0,7.13,1.38,7.13,6.6,0,3.21-.37,5.59-4.01,6.05v.06c2.57.18,3.7,1.65,3.7,4.13v6.08h-2.6v-4.86c0-2.9-.7-4.31-3.85-4.31h-8.34v9.17Z"/>
      <path class="cls-11" d="M715.63,210.99c-3.85,0-4.86.95-4.86,5.41v8.16c0,4.55,1.5,5.1,4.86,5.14h3.09c3.36-.03,4.86-.58,4.86-5.14v-8.16c0-4.47-1.01-5.41-4.86-5.41h-3.09ZM718.72,208.69c5.72.06,7.46,1.96,7.46,7.7v8.16c0,5.41-1.96,7.43-7.46,7.43h-3.09c-5.5,0-7.46-2.02-7.46-7.43v-8.16c0-5.75,1.74-7.64,7.46-7.7h3.09Z"/>
      <path class="cls-11" d="M753.92,208.88v16.51c0,6.14-3.67,6.6-9.08,6.6-5.01,0-9.08-.12-9.08-6.6v-16.51h2.6v16.51c0,3.73.88,4.31,6.48,4.31,4.62,0,6.48-.03,6.48-4.31v-16.51h2.6Z"/>
      <path class="cls-11" d="M766.61,211.17v9.42h6.73c3.46,0,5.23.03,5.23-4.43s-.79-4.98-4-4.98h-7.95ZM764.01,208.88h11.68c4.43,0,5.47,3,5.47,6.94,0,2.05-.03,7.06-5.59,7.06h-8.96v8.93h-2.6v-22.93Z"/>
    </g>
  </g>
  <g class="cls-7">
    <path class="cls-11" d="M702.51,313.14c-3.35,0-4.88-2.2-4.88-2.2v-12.35s.5-.64,1.24-1.33c.74-.7,2.26-1.64,4.57-1.64,2.94,0,4.94,2.26,4.94,8.46,0,8.9-4.7,9.06-5.86,9.06M713.35,293.75c-.86-1.16-1.9-2.06-3.08-2.66-1.18-.6-2.49-.91-3.88-.91-1.72,0-3.24.3-4.51.9-1.28.6-2.45,1.41-3.46,2.41l-.79.77v-14.43c0-1.1-.93-2-2.08-2h-5.45s0,40.16,0,40.16h7.53v-3.08c2.66,3.01,4.73,3.51,6.9,3.51s3.31-.36,4.72-1.07c1.42-.71,2.65-1.72,3.67-2.99,1.02-1.28,1.83-2.81,2.4-4.55.57-1.75.86-3.68.86-5.75,0-2.22-.25-4.22-.76-5.95-.5-1.72-1.2-3.19-2.07-4.37"/>
    <path class="cls-11" d="M791.91,290.68c-.89,0-1.66.55-1.96,1.31l-6.14,17.3-5.85-17.14c-.25-.84-1.06-1.46-2.01-1.46h-6.33l10.55,27.31h7.06l10.61-27.31h-5.93Z"/>
    <path class="cls-11" d="M767.83,318v-25.34c-.02-1.08-.96-1.97-2.09-1.97h-12.52c0-.96-.15-4.43,2.1-6.05,1.87-1.35,4.07-1.83,7.91-1.83h1.57s0-2.62,0-2.9c0-1.03-.84-1.85-1.84-1.97-.43-.05-1.49-.11-2.24-.11-2.59,0-7.81.38-11.28,3.53-3.48,3.15-3.48,7.1-3.48,9.33h-8.54c-.89,0-1.66.55-1.96,1.31l-5.85,16.59-6.02-16.5c-.27-.81-1.06-1.4-1.99-1.4h-6.72l11.09,25.3-5.23,10.99h5.6c.87,0,1.28-.17,1.48-.31.29-.21.56-.57.78-1.06l12.78-30.06h4.59v22.45h7.53v-22.45h6.81v22.45h7.53Z"/>
    <path class="cls-11" d="M657.37,290.68c-.89,0-1.66.55-1.96,1.31l-6.14,17.3-5.85-17.14c-.25-.84-1.06-1.46-2.01-1.46h-6.32l10.55,27.31h7.06l10.61-27.31h-5.93Z"/>
    <path class="cls-11" d="M815.57,301.38h-11.54c0-.39.36-3.08,1.99-4.76.98-1.01,2.38-1.51,4.12-1.51.97,0,1.82.17,2.52.51.7.34,1.27.79,1.7,1.34.43.55.7,1.13.93,1.87.3.95.28,2.13.28,2.55M818.8,293.47c-1.07-1.06-2.36-1.88-3.85-2.43-1.5-.56-3.17-.84-4.98-.84-2.09,0-3.99.36-5.64,1.08-1.65.72-3.08,1.7-4.24,2.92-1.16,1.22-2.07,2.67-2.69,4.29-.62,1.63-.94,3.38-.94,5.21,0,2.44.37,4.6,1.1,6.43.73,1.82,1.73,3.37,2.98,4.59s2.73,2.15,4.39,2.77c1.68.62,3.5.94,5.42.94.94,0,1.94-.07,2.98-.2,1.03-.13,2.07-.37,3.1-.72,1.02-.34,2.04-.82,3.01-1.43.93-.58,1.82-1.34,2.64-2.26-.83-1.04-1.92-2.38-1.99-2.47-.39-.43-.97-.68-1.57-.69-.51,0-.89.19-1.24.37-.52.26-3.11,1.99-6.17,1.99-2.11,0-3.57-.58-4.81-1.72-1.24-1.14-2.33-3.52-2.33-5.94h16.81c.24,0,.59-.04.78-.11.15-.06.26-.15.35-.3.11-.18.19-.44.24-.77.05-.38.08-.88.08-1.49,0-1.97-.31-3.75-.91-5.3-.6-1.54-1.45-2.86-2.51-3.92"/>
    <path class="cls-11" d="M680.76,301.38h-11.54c0-.39.36-3.08,1.99-4.76.98-1.01,2.38-1.51,4.12-1.51.97,0,1.82.17,2.52.51.7.34,1.27.79,1.7,1.34.43.55.7,1.13.93,1.87.3.95.28,2.13.28,2.55M684,293.47c-1.07-1.06-2.36-1.88-3.85-2.43-1.5-.56-3.17-.84-4.98-.84-2.09,0-3.99.36-5.64,1.08-1.65.72-3.08,1.7-4.24,2.92-1.16,1.22-2.07,2.67-2.69,4.29-.62,1.63-.94,3.38-.94,5.21,0,2.44.37,4.6,1.1,6.43.73,1.82,1.73,3.37,2.98,4.59,1.25,1.22,2.73,2.15,4.39,2.77,1.68.62,3.5.94,5.42.94.94,0,1.94-.07,2.98-.2,1.03-.13,2.07-.37,3.1-.72,1.03-.34,2.04-.82,3.01-1.43.93-.58,1.82-1.34,2.64-2.26-.83-1.04-1.92-2.38-1.99-2.47-.39-.43-.97-.68-1.57-.69-.51,0-.89.19-1.24.37-.52.26-3.11,1.99-6.17,1.99-2.11,0-3.57-.58-4.81-1.72-1.24-1.14-2.33-3.52-2.33-5.94h16.81c.24,0,.59-.04.78-.11.15-.06.26-.15.35-.3.11-.18.19-.44.24-.77.05-.38.08-.88.08-1.49,0-1.97-.31-3.75-.91-5.3-.6-1.54-1.45-2.86-2.51-3.92"/>
    <path class="cls-11" d="M633.54,318v-25.34c-.02-1.08-.96-1.97-2.09-1.97h-12.52c0-.96-.15-4.43,2.1-6.05,1.87-1.35,4.07-1.83,7.91-1.83h1.57s0-2.62,0-2.9c0-1.03-.84-1.85-1.84-1.97-.43-.05-1.48-.11-2.24-.11-2.59,0-7.81.38-11.28,3.53-3.48,3.15-3.48,7.1-3.48,9.33h-4v2.86c0,1.08.88,1.96,2.01,2h1.99s0,22.45,0,22.45h7.53v-22.45h6.8v22.45h7.53Z"/>
  </g>
  <g>
    <g class="cls-1">
      <path class="cls-11" d="M132.23,295.91c-4.23,0-7.67,3.44-7.67,7.67s3.44,7.67,7.67,7.67,7.67-3.44,7.67-7.67-3.44-7.67-7.67-7.67M132.23,317.83c-7.85,0-14.24-6.39-14.24-14.24s6.39-14.24,14.24-14.24,14.24,6.39,14.24,14.24-6.39,14.24-14.24,14.24"/>
      <path class="cls-11" d="M178.25,316.73h-6.57v-13.15c0-4.23-3.44-7.67-7.67-7.67s-7.67,3.44-7.67,7.67v13.15h-6.57v-13.15c0-7.85,6.39-14.24,14.24-14.24s14.24,6.39,14.24,14.24v13.15Z"/>
      <path class="cls-11" d="M234.13,295.91c-4.23,0-7.67,3.44-7.67,7.67s3.44,7.67,7.67,7.67,7.67-3.44,7.67-7.67-3.44-7.67-7.67-7.67M234.13,317.83c-7.85,0-14.24-6.39-14.24-14.24s6.39-14.24,14.24-14.24,14.24,6.39,14.24,14.24-6.39,14.24-14.24,14.24"/>
    </g>
    <rect class="cls-11" x="210.02" y="290.44" width="6.57" height="26.3"/>
    <g class="cls-2">
      <path class="cls-11" d="M105.98,317.83c-7.85,0-14.24-6.39-14.24-14.24s6.39-14.24,14.24-14.24c4.22,0,8.19,1.85,10.91,5.09l-5.03,4.23c-1.46-1.74-3.61-2.74-5.88-2.74-4.23,0-7.67,3.44-7.67,7.67s3.44,7.67,7.67,7.67c2.27,0,4.41-1,5.88-2.74l5.03,4.23c-2.72,3.23-6.69,5.09-10.91,5.09"/>
      <path class="cls-11" d="M195.83,317.83c-7.85,0-14.24-6.39-14.24-14.24s6.39-14.24,14.24-14.24c4.22,0,8.19,1.85,10.91,5.09l-5.03,4.23c-1.46-1.74-3.61-2.74-5.88-2.74-4.23,0-7.67,3.44-7.67,7.67s3.44,7.67,7.67,7.67c2.27,0,4.41-1,5.88-2.74l5.03,4.23c-2.72,3.23-6.69,5.09-10.91,5.09"/>
      <path class="cls-4" d="M208.37,282.76c0-2.73,2.21-4.93,4.93-4.93s4.93,2.21,4.93,4.93-2.21,4.94-4.93,4.94-4.93-2.21-4.93-4.94"/>
    </g>
  </g>
  <g>
    <g class="cls-8">
      <path class="cls-11" d="M306.64,303.66c0,1.19.2,2.28.59,3.27.39.99.94,1.87,1.64,2.62.7.75,1.53,1.34,2.48,1.77.95.43,1.98.64,3.09.64.68,0,1.38-.12,2.1-.35.72-.23,1.38-.57,1.98-.99.6-.43,1.16-.93,1.67-1.49.51-.57.88-1.19,1.13-1.87v-6.7c-.61-1.57-1.61-2.87-2.98-3.91-1.37-1.04-2.81-1.56-4.32-1.56-1.07,0-2.06.23-2.98.69-.92.46-1.7,1.1-2.35,1.9-.65.8-1.15,1.72-1.51,2.76-.36,1.04-.54,2.12-.54,3.23M299.24,303.48c0-2.04.31-3.94.94-5.68.63-1.75,1.5-3.28,2.6-4.61,1.11-1.33,2.43-2.37,3.97-3.12,1.54-.75,3.22-1.13,5.05-1.13,2.05,0,3.9.5,5.57,1.51,1.66,1.01,2.96,2.31,3.89,3.92v-15.99h7.18v30.91c0,.75.14,1.28.43,1.6.28.31.79.5,1.51.55v6.13c-1.36.25-2.51.37-3.43.37-1.33-.03-2.36-.34-3.09-.91-.73-.57-1.19-1.38-1.36-2.44l-.16-1.92c-1.03,1.79-2.43,3.14-4.19,4.05-1.76.91-3.63,1.37-5.6,1.37s-3.72-.38-5.34-1.13-3.02-1.79-4.2-3.11c-1.18-1.32-2.1-2.87-2.76-4.64-.66-1.78-.99-3.69-.99-5.73"/>
      <path class="cls-11" d="M333.98,317.56v-28.12h6.6v5.85c.96-1.89,2.22-3.42,3.78-4.57,1.55-1.15,3.2-1.73,4.93-1.73.4,0,.7.01.89.04.19.03.38.06.55.09v6.37c-2.18.04-4.14.46-5.86,1.28-1.72.82-2.96,2.04-3.71,3.66v17.13h-7.18Z"/>
      <path class="cls-11" d="M357.74,308.69c0,1.25.47,2.28,1.41,3.11.94.82,2.09,1.23,3.45,1.23,1.23,0,2.38-.22,3.47-.66,1.09-.44,1.94-1.02,2.55-1.75.79-.62,1.18-1.32,1.18-2.09v-3.29c-.86-.32-1.79-.58-2.8-.79-1.01-.2-1.97-.31-2.9-.31-1.86,0-3.38.43-4.57,1.29-1.19.86-1.79,1.94-1.79,3.26M350.98,309.31c0-1.34.3-2.59.89-3.73.59-1.14,1.42-2.11,2.47-2.9,1.05-.79,2.31-1.42,3.78-1.88,1.46-.46,3.06-.69,4.81-.69,1.26,0,2.49.11,3.69.33,1.2.22,2.26.53,3.19.93v-1.61c0-1.84-.53-3.26-1.59-4.26-1.06-1-2.63-1.5-4.71-1.5-1.5,0-2.96.26-4.38.79-1.42.53-2.89,1.31-4.39,2.35l-2.18-4.55c3.61-2.42,7.51-3.64,11.68-3.66,4.03,0,7.17,1,9.4,2.99,2.23,1.99,3.35,4.87,3.35,8.62v8.86c0,.77.14,1.31.43,1.63.29.32.79.51,1.51.56v5.96c-.68.14-1.32.23-1.9.28-.59.05-1.1.08-1.53.08-1.36-.03-2.4-.33-3.12-.9-.72-.56-1.16-1.34-1.34-2.31l-.16-1.49c-1.26,1.59-2.78,2.79-4.57,3.62s-3.7,1.24-5.75,1.24c-1.36,0-2.62-.22-3.79-.66-1.17-.44-2.19-1.06-3.05-1.85-.86-.79-1.53-1.72-2.01-2.79-.48-1.06-.72-2.22-.72-3.48"/>
      <path class="cls-11" d="M387.92,303.52c0,1.13.2,2.18.59,3.15.39.97.94,1.83,1.63,2.56.7.73,1.52,1.31,2.47,1.73.95.42,1.98.63,3.07.63.78,0,1.53-.12,2.25-.37.71-.25,1.36-.58,1.95-1,.58-.42,1.11-.9,1.58-1.46.47-.55.83-1.15,1.07-1.78v-6.55c-.65-1.6-1.64-2.9-3-3.88-1.35-.98-2.78-1.47-4.28-1.47-1.1,0-2.11.23-3.02.7-.92.47-1.7,1.1-2.34,1.88-.65.78-1.14,1.69-1.48,2.7-.34,1.02-.51,2.07-.51,3.16M380.53,303.49c0-2.04.33-3.94.98-5.69.65-1.75,1.55-3.29,2.7-4.61,1.15-1.33,2.53-2.37,4.14-3.12,1.61-.75,3.38-1.13,5.31-1.13,2.22,0,4.14.49,5.78,1.48,1.64.99,2.98,2.3,4.03,3.94v-4.93h6.26v26.79c0,2.08-.39,3.94-1.16,5.58-.78,1.64-1.86,3.04-3.24,4.18-1.39,1.14-3.02,2.02-4.91,2.63-1.89.61-3.96.92-6.21.92-3.13,0-5.74-.48-7.85-1.44-2.11-.96-3.92-2.33-5.43-4.09l3.95-4.02c1.07,1.4,2.42,2.5,4.06,3.3,1.64.79,3.39,1.19,5.27,1.19,1.1,0,2.16-.16,3.18-.47,1.02-.32,1.91-.81,2.68-1.47.77-.67,1.37-1.51,1.82-2.54.45-1.03.67-2.25.67-3.65v-3.65c-.93,1.61-2.22,2.85-3.9,3.72-1.67.87-3.48,1.31-5.42,1.31s-3.58-.38-5.15-1.13c-1.57-.75-2.92-1.78-4.03-3.08-1.12-1.3-1.98-2.81-2.6-4.53-.62-1.72-.92-3.55-.92-5.49"/>
      <path class="cls-11" d="M420.66,303.53c0,1.26.19,2.39.56,3.41.38,1.02.9,1.91,1.56,2.66.66.75,1.44,1.33,2.34,1.74.89.41,1.86.61,2.92.61s1.99-.21,2.89-.61c.89-.41,1.67-.99,2.34-1.74.66-.75,1.19-1.64,1.56-2.68.38-1.04.57-2.19.57-3.44s-.19-2.35-.57-3.38c-.38-1.03-.9-1.92-1.56-2.67-.67-.75-1.45-1.33-2.34-1.74-.89-.41-1.86-.61-2.89-.61s-2,.21-2.9.64c-.9.43-1.69,1.02-2.35,1.77-.67.75-1.19,1.64-1.56,2.67-.38,1.03-.56,2.15-.56,3.38M413.27,303.53c0-1.97.34-3.83,1.02-5.58s1.66-3.29,2.93-4.62c1.27-1.34,2.82-2.4,4.63-3.2,1.82-.79,3.88-1.19,6.18-1.19s4.34.4,6.15,1.19c1.81.79,3.35,1.86,4.63,3.2,1.28,1.34,2.26,2.88,2.94,4.63.68,1.75,1.02,3.61,1.02,5.56s-.34,3.79-1.02,5.55c-.68,1.76-1.65,3.31-2.9,4.64-1.25,1.34-2.79,2.4-4.63,3.19-1.83.79-3.89,1.18-6.19,1.18s-4.34-.39-6.17-1.18c-1.82-.79-3.37-1.85-4.65-3.19-1.27-1.34-2.25-2.89-2.93-4.64-.68-1.76-1.02-3.61-1.02-5.55"/>
      <path class="cls-11" d="M445.81,317.56v-28.12h6.6v5.22c1.02-1.78,2.51-3.18,4.45-4.19,1.95-1.01,4.15-1.52,6.61-1.52,1.75,0,3.18.32,4.28.97,1.11.65,1.97,1.49,2.58,2.53.61,1.04,1.03,2.22,1.26,3.54.23,1.32.34,2.66.34,4.02v17.56h-7.18v-15.78c0-2.25-.39-3.9-1.18-4.94-.79-1.04-1.88-1.56-3.28-1.56-.72,0-1.45.14-2.2.43-.75.29-1.46.69-2.12,1.21-.66.52-1.26,1.13-1.79,1.85-.53.72-.93,1.5-1.19,2.36v16.43h-7.18Z"/>
      <path class="cls-11" d="M474.93,298.25v-5.06h3.67v-3.6c0-1.59.26-3.1.77-4.54.51-1.44,1.27-2.69,2.25-3.74.99-1.06,2.18-1.9,3.59-2.53,1.41-.63,3.03-.95,4.86-.95,2.05,0,3.91.33,5.61,1,1.69.66,3.29,1.5,4.8,2.52l-2.88,5.49c-.93-.87-2.02-1.56-3.28-2.09-1.26-.52-2.53-.79-3.83-.79-1.61,0-2.8.53-3.57,1.59-.77,1.06-1.15,2.28-1.15,3.66v3.98h15.07v24.38h-7.18v-19.32h-7.89v19.32h-7.18v-19.32h-3.67Z"/>
      <path class="cls-11" d="M503.44,314.4l2.88-4.88c3.59,2.34,7.06,3.51,10.41,3.51,1.5,0,2.67-.27,3.53-.82.85-.54,1.28-1.32,1.28-2.32s-.51-1.75-1.53-2.24c-1.02-.49-2.72-1.02-5.11-1.58-1.81-.44-3.37-.89-4.67-1.36-1.3-.47-2.35-1.01-3.14-1.62-.79-.62-1.37-1.32-1.73-2.11-.36-.79-.54-1.72-.54-2.8,0-1.43.29-2.71.87-3.86.58-1.14,1.38-2.11,2.39-2.91,1.02-.8,2.22-1.42,3.6-1.86,1.39-.44,2.89-.65,4.5-.65,2.01,0,4,.31,5.98.93,1.98.62,3.84,1.46,5.56,2.52l-2.96,4.46c-1.57-1-3.05-1.73-4.45-2.18-1.4-.45-2.79-.67-4.19-.67-1.29,0-2.37.25-3.24.75-.87.5-1.31,1.32-1.31,2.44,0,.97.42,1.67,1.26,2.1.84.43,2.33.92,4.47,1.46,2.01.51,3.71,1.02,5.13,1.52,1.42.5,2.58,1.08,3.49,1.73s1.57,1.4,1.98,2.24c.41.84.62,1.87.62,3.06,0,1.35-.27,2.58-.82,3.67-.55,1.09-1.33,2.02-2.33,2.79-1,.76-2.23,1.35-3.68,1.76-1.45.41-3.05.61-4.79.61-1.16,0-2.35-.09-3.59-.26-1.23-.17-2.44-.42-3.63-.74-1.18-.32-2.31-.71-3.39-1.16-1.08-.46-2.03-.97-2.85-1.54"/>
      <path class="cls-11" d="M531.76,317.56v-39.19h7.18v16.28c1.03-1.82,2.43-3.22,4.21-4.22,1.77-1,3.74-1.49,5.88-1.49,1.82,0,3.3.31,4.46.94,1.15.63,2.05,1.46,2.7,2.5.65,1.04,1.09,2.22,1.34,3.54.24,1.32.37,2.68.37,4.08v17.56h-7.18v-15.78c0-2.22-.41-3.86-1.23-4.91-.82-1.06-1.98-1.59-3.49-1.59-.65,0-1.33.14-2.05.43-.72.29-1.4.69-2.04,1.21-.65.52-1.24,1.13-1.77,1.85-.53.72-.93,1.5-1.19,2.36v16.43h-7.18Z"/>
    </g>
    <rect class="cls-9" x="311.74" y="325.18" width="31.65" height="5.15"/>
  </g>
  <path class="cls-11" d="M912.53,317.43c-8.55,0-13.16-5.91-13.16-11.47h6.84c0,1.6,1.32,4.63,6.32,4.63,3.96,0,6.33-1.73,6.33-4.63,0-.69,0-2.53-3.57-4.03-.98-.41-2.57-.88-3.73-1.23-1.7-.51-3.21-.97-4.43-1.48-6.75-2.84-7.76-7.69-7.76-10.33,0-5.52,4.12-11.47,13.16-11.47,8.55,0,13.16,5.91,13.16,11.47h-6.84c0-1.6-1.32-4.63-6.32-4.63-3.96,0-6.33,1.73-6.33,4.63,0,.69,0,2.53,3.57,4.03.97.41,2.57.88,3.73,1.23,1.7.5,3.21.96,4.43,1.48,6.75,2.84,7.76,7.69,7.76,10.33,0,5.52-4.12,11.47-13.16,11.47ZM903.6,278.24h-31.44v6.84h11.15v31.57h6.84v-31.57h8.25c.82-2.66,2.53-5.12,5.2-6.84ZM953.15,301.9h-26.49l-.06.15c.51,1.47.65,2.85.65,3.91,0,3.99-1.86,8.16-5.82,10.68h6.51l3.38-8.98h17.15l3.38,8.98h6.84l-5.54-14.74ZM934.08,300.35l5.83-15.49,5.83,15.49h6.84l-8.29-22.03h-8.75l-8.29,22.03h6.84Z"/>
</svg>